<svg xmlns="http://www.w3.org/2000/svg" viewBox="0 0 760 560"><defs><marker id="a" markerWidth="12" markerHeight="12" refX="10" refY="6" orient="auto"><path d="M0 0 12 6 0 12Z" fill="#24dbc5"/></marker></defs><rect width="760" height="560" rx="42" fill="#0b1a2c"/><g fill="#102642" stroke="#3ca7ff" stroke-width="4"><rect x="55" y="210" width="130" height="95" rx="18"/><rect x="575" y="210" width="130" height="95" rx="18"/></g><g fill="#102642" stroke="#89e36d" stroke-width="4"><rect x="255" y="105" width="115" height="78" rx="16"/><rect x="395" y="250" width="115" height="78" rx="16"/><rect x="250" y="380" width="115" height="78" rx="16"/></g><g stroke="#24dbc5" stroke-width="6" marker-end="url(#a)" fill="none"><path d="M185 245 C230 185 235 145 255 140"/><path d="M370 145 C445 145 510 190 575 235"/><path d="M185 270 C270 280 330 285 395 290"/><path d="M510 290 C535 285 555 275 575 265"/><path d="M185 295 C220 360 235 405 250 420"/><path d="M365 420 C470 405 530 330 575 295"/></g><g font-family="Arial" font-weight="700" font-size="24" fill="#f5f9ff" text-anchor="middle"><text x="120" y="265">Клиент</text><text x="640" y="265">Сервер</text><text x="312" y="153">ISP</text><text x="452" y="298">Узел</text><text x="308" y="428">Маршрут</text></g><g fill="#ffb15f"><rect x="330" y="226" width="34" height="34" rx="7"/><rect x="370" y="226" width="34" height="34" rx="7"/><rect x="410" y="226" width="34" height="34" rx="7"/></g></svg>