<svg xmlns="http://www.w3.org/2000/svg" viewBox="0 0 760 560"><rect width="760" height="560" rx="42" fill="#0b1a2c"/><g fill="none" stroke="#24dbc5" stroke-width="5"><path d="M380 280m-170 0a170 170 0 1 0 340 0a170 170 0 1 0-340 0"/><path d="M380 110v340M210 280h340"/></g><circle cx="380" cy="280" r="82" fill="#102642" stroke="#89e36d" stroke-width="7"/><g fill="#f5f9ff" font-family="Arial" font-weight="700" font-size="24" text-anchor="middle"><text x="380" y="287">VPNLab</text></g><g fill="#3ca7ff"><rect x="85" y="90" width="150" height="82" rx="18"/><rect x="525" y="90" width="150" height="82" rx="18"/><rect x="85" y="388" width="150" height="82" rx="18"/><rect x="525" y="388" width="150" height="82" rx="18"/></g><g fill="#06101d" font-family="Arial" font-size="21" font-weight="700" text-anchor="middle"><text x="160" y="137">Работа</text><text x="600" y="137">Банк</text><text x="160" y="435">Сервер</text><text x="600" y="435">Бот</text></g></svg>